<?plantuml 1.2026.2?><svg xmlns="http://www.w3.org/2000/svg" xmlns:xlink="http://www.w3.org/1999/xlink" contentStyleType="text/css" data-diagram-type="STATE" height="397px" preserveAspectRatio="none" style="width:1090px;height:397px;background:#FFFFFF;" version="1.1" viewBox="0 0 1090 397" width="1090px" zoomAndPan="magnify"><defs/><g><g class="start_entity" data-qualified-name=".start." data-source-line="1" id="ent0002"><ellipse cx="530.13" cy="16" fill="#222222" rx="10" ry="10" style="stroke:#222222;stroke-width:1;"/></g><g class="entity" data-qualified-name="Inexistente" id="ent0003"><rect fill="#F1F1F1" height="50" rx="12.5" ry="12.5" style="stroke:#181818;stroke-width:0.5;" width="98.1621" x="481.13" y="87"/><line style="stroke:#181818;stroke-width:0.5;" x1="481.13" x2="579.2921" y1="113.2969" y2="113.2969"/><text fill="#000000" font-family="sans-serif" font-size="14" lengthAdjust="spacing" textLength="78.1621" x="491.13" y="104.9951">Inexistente</text></g><g class="entity" data-qualified-name="Proyectada" id="ent0005"><rect fill="#F1F1F1" height="50" rx="12.5" ry="12.5" style="stroke:#181818;stroke-width:0.5;" width="98.8936" x="480.63" y="214"/><line style="stroke:#181818;stroke-width:0.5;" x1="480.63" x2="579.5236" y1="240.2969" y2="240.2969"/><text fill="#000000" font-family="sans-serif" font-size="14" lengthAdjust="spacing" textLength="78.8936" x="490.63" y="231.9951">Proyectada</text></g><g class="entity" data-qualified-name="Actualizada" id="ent0007"><rect fill="#F1F1F1" height="50" rx="12.5" ry="12.5" style="stroke:#181818;stroke-width:0.5;" width="101.3887" x="191.63" y="341"/><line style="stroke:#181818;stroke-width:0.5;" x1="191.63" x2="293.0187" y1="367.2969" y2="367.2969"/><text fill="#000000" font-family="sans-serif" font-size="14" lengthAdjust="spacing" textLength="81.3887" x="201.63" y="358.9951">Actualizada</text></g><g class="entity" data-qualified-name="Distorsionada" id="ent0010"><rect fill="#F1F1F1" height="50" rx="12.5" ry="12.5" style="stroke:#181818;stroke-width:0.5;" width="116.4414" x="716.13" y="341"/><line style="stroke:#181818;stroke-width:0.5;" x1="716.13" x2="832.5714" y1="367.2969" y2="367.2969"/><text fill="#000000" font-family="sans-serif" font-size="14" lengthAdjust="spacing" textLength="96.4414" x="726.13" y="358.9951">Distorsionada</text></g><!--link *start* to Inexistente--><g class="link" data-entity-1="ent0002" data-entity-2="ent0003" data-link-type="dependency" data-source-line="1" id="lnk4"><path d="M530.13,26.01 C530.13,39.89 530.13,60.97 530.13,80.84" fill="none" id="*start*-to-Inexistente" style="stroke:#181818;stroke-width:1;"/><polygon fill="#181818" points="530.13,86.84,534.13,77.84,530.13,81.84,526.13,77.84,530.13,86.84" style="stroke:#181818;stroke-width:1;"/></g><!--link Inexistente to Proyectada--><g class="link" data-entity-1="ent0003" data-entity-2="ent0005" data-link-type="dependency" data-source-line="3" id="lnk6"><path d="M481.04,125.13 C459.34,133.21 435.89,146.27 423.13,167 C405.72,195.29 439.1084,212.8937 474.8384,224.1737" fill="none" id="Inexistente-to-Proyectada" style="stroke:#181818;stroke-width:1;"/><polygon fill="#181818" points="480.56,225.98,473.1818,219.4561,475.792,224.4747,470.7733,227.0849,480.56,225.98" style="stroke:#181818;stroke-width:1;"/><text fill="#000000" font-family="sans-serif" font-size="13" lengthAdjust="spacing" textLength="166.8037" x="424.13" y="180.0669">Fuente ilumina un cuerpo</text></g><!--link Proyectada to Inexistente--><g class="link" data-entity-1="ent0005" data-entity-2="ent0003" data-link-type="dependency" data-source-line="10" id="lnk13"><path d="M573.74,213.91 C590.36,201.33 603.51,184.85 595.13,167 C589.65,155.31 584.8958,149.0769 574.9358,140.9369" fill="none" id="Proyectada-to-Inexistente" style="stroke:#181818;stroke-width:1;"/><polygon fill="#181818" points="570.29,137.14,574.7275,145.9325,574.1615,140.3041,579.79,139.7381,570.29,137.14" style="stroke:#181818;stroke-width:1;"/><text fill="#000000" font-family="sans-serif" font-size="13" lengthAdjust="spacing" textLength="108.4878" x="599.13" y="180.0669">Fuente se apaga</text></g><!--link Proyectada to Actualizada--><g class="link" data-entity-1="ent0005" data-entity-2="ent0007" data-link-type="dependency" data-source-line="4" id="lnk8"><path d="M480.48,241.9 C363.36,246.88 77.56,262.21 49.13,294 C6,342.24 114.7047,357.3407 185.3647,362.2907" fill="none" id="Proyectada-to-Actualizada" style="stroke:#181818;stroke-width:1;"/><polygon fill="#181818" points="191.35,362.71,182.6515,358.0908,186.3622,362.3606,182.0925,366.0713,191.35,362.71" style="stroke:#181818;stroke-width:1;"/><text fill="#000000" font-family="sans-serif" font-size="13" lengthAdjust="spacing" textLength="337.2192" x="50.13" y="307.0669">Cuerpo cambia de Posicion / Mueve la fuente de luz</text></g><!--link Actualizada to Proyectada--><g class="link" data-entity-1="ent0007" data-entity-2="ent0005" data-link-type="dependency" data-source-line="5" id="lnk9"><path d="M292.77,348.6 C322.15,338.63 359.65,325.13 392.13,311 C424.62,296.87 454.8698,281.3694 481.7398,266.8694" fill="none" id="Actualizada-to-Proyectada" style="stroke:#181818;stroke-width:1;"/><polygon fill="#181818" points="487.02,264.02,477.2,264.7739,482.6198,266.3945,480.9992,271.8143,487.02,264.02" style="stroke:#181818;stroke-width:1;"/><text fill="#000000" font-family="sans-serif" font-size="13" lengthAdjust="spacing" textLength="156.5776" x="428.13" y="307.0669">Finaliza c&#225;lculo espacial</text></g><!--link Proyectada to Distorsionada--><g class="link" data-entity-1="ent0005" data-entity-2="ent0010" data-link-type="dependency" data-source-line="7" id="lnk11"><path d="M558.09,264.04 C576.51,279.01 601.67,297.85 626.13,311 C654.44,326.22 682.2412,336.9628 710.2012,346.1728" fill="none" id="Proyectada-to-Distorsionada" style="stroke:#181818;stroke-width:1;"/><polygon fill="#181818" points="715.9,348.05,708.6033,341.435,711.151,346.4857,706.1004,349.0334,715.9,348.05" style="stroke:#181818;stroke-width:1;"/><text fill="#000000" font-family="sans-serif" font-size="13" lengthAdjust="spacing" textLength="248.9614" x="627.13" y="307.0669">Cambia la perspectiva de observaci&#243;n</text></g><!--link Distorsionada to Proyectada--><g class="link" data-entity-1="ent0010" data-entity-2="ent0005" data-link-type="dependency" data-source-line="8" id="lnk12"><path d="M832.14,348.98 C866.73,336.57 900.32,317.54 880.13,294 C842.01,249.54 672.8094,241.4381 585.6594,240.1581" fill="none" id="Distorsionada-to-Proyectada" style="stroke:#181818;stroke-width:1;"/><polygon fill="#181818" points="579.66,240.07,588.6003,244.2017,584.6595,240.1434,588.7178,236.2026,579.66,240.07" style="stroke:#181818;stroke-width:1;"/><text fill="#000000" font-family="sans-serif" font-size="13" lengthAdjust="spacing" textLength="195.4063" x="887.13" y="307.0669">Se estabiliza el punto de vista</text></g><?plantuml-src PP3FIWCn4CRlUOhlB1Jl7eIY21w4WaVnC9jEPI1DGf9PQj_6P_0H-cBEPekixZ6Pxyzlvktc7PlDFPuZdwGsZesTMppwS5VI9_j6Uy8TdhJ_Iz2ZH896UEMIarke9jFMDwKWvzdrq3NmT1o4i6ViKXKlAU8MByeZ8n0ESxHDWvxTCc1DOTtJ3Fxo5Ro61AwPl51m_q4URPLKgdLTKMO6wyjSQZQbZ1qf3PNBQ26Nx-Z-kbRzhso5ZGRf41oGDROqfOncf1N4ygI_DwmColH1Fm00?></g></svg>