<?plantuml 1.2026.2?><svg xmlns="http://www.w3.org/2000/svg" xmlns:xlink="http://www.w3.org/1999/xlink" contentStyleType="text/css" data-diagram-type="STATE" height="369px" preserveAspectRatio="none" style="width:551px;height:369px;background:#FFFFFF;" version="1.1" viewBox="0 0 551 369" width="551px" zoomAndPan="magnify"><defs/><g><g class="entity" data-qualified-name="Proyectada" id="ent0002"><rect fill="#F1F1F1" height="50.2656" rx="12.5" ry="12.5" style="stroke:#181818;stroke-width:0.5;" width="210.3594" x="138.5" y="87"/><line style="stroke:#181818;stroke-width:0.5;" x1="138.5" x2="348.8594" y1="113.2969" y2="113.2969"/><text fill="#000000" font-family="sans-serif" font-size="14" lengthAdjust="spacing" textLength="78.8936" x="204.2329" y="104.9951">Proyectada</text><text fill="#000000" font-family="sans-serif" font-size="12" lengthAdjust="spacing" textLength="190.3594" x="143.5" y="129.4355">Silueta estable sobre Superficie</text></g><g class="entity" data-qualified-name="Dinamica" id="ent0003"><rect fill="#F1F1F1" height="50.2656" rx="12.5" ry="12.5" style="stroke:#181818;stroke-width:0.5;" width="237.1133" x="7" y="214"/><line style="stroke:#181818;stroke-width:0.5;" x1="7" x2="244.1133" y1="240.2969" y2="240.2969"/><text fill="#000000" font-family="sans-serif" font-size="14" lengthAdjust="spacing" textLength="89.6875" x="80.7129" y="231.9951">EnTransici&#243;n</text><text fill="#000000" font-family="sans-serif" font-size="12" lengthAdjust="spacing" textLength="217.1133" x="12" y="256.4355">Recalculando Silueta en tiempo real</text></g><g class="start_entity" data-qualified-name=".start." data-source-line="1" id="ent0002"><ellipse cx="243.5" cy="16" fill="#222222" rx="10" ry="10" style="stroke:#222222;stroke-width:1;"/></g><g class="end_entity" data-qualified-name=".end." data-source-line="10" id="ent0006"><ellipse cx="236.5" cy="352" fill="none" rx="11" ry="11" style="stroke:#222222;stroke-width:1;"/><ellipse cx="236.5" cy="352" fill="#222222" rx="6" ry="6" style="stroke:#222222;stroke-width:1;"/></g><!--link *start* to Proyectada--><g class="link" data-entity-1="ent0002" data-entity-2="ent0002" data-link-type="dependency" data-source-line="1" id="lnk3"><path d="M243.5,26.01 C243.5,39.89 243.5,60.97 243.5,80.84" fill="none" id="*start*-to-Proyectada" style="stroke:#181818;stroke-width:1;"/><polygon fill="#181818" points="243.5,86.84,247.5,77.84,243.5,81.84,239.5,77.84,243.5,86.84" style="stroke:#181818;stroke-width:1;"/></g><!--link Proyectada to Dinamica--><g class="link" data-entity-1="ent0002" data-entity-2="ent0003" data-link-type="dependency" data-source-line="6" id="lnk4"><path d="M138.08,124.66 C113,132.67 89.04,145.76 73.5,167 C62.13,182.54 70.0495,196.012 85.5995,209.722" fill="none" id="Proyectada-to-Dinamica" style="stroke:#181818;stroke-width:1;"/><polygon fill="#181818" points="90.1,213.69,85.9945,204.7376,86.3495,210.3833,80.7038,210.7384,90.1,213.69" style="stroke:#181818;stroke-width:1;"/><text fill="#000000" font-family="sans-serif" font-size="13" lengthAdjust="spacing" textLength="125.6646" x="74.5" y="180.0669">cambia de posici&#243;n</text></g><!--link Dinamica to Proyectada--><g class="link" data-entity-1="ent0003" data-entity-2="ent0002" data-link-type="dependency" data-source-line="7" id="lnk5"><path d="M168.58,213.85 C181.14,205.48 194.23,195.32 204.5,184 C216.97,170.25 224.4408,157.2502 231.1808,142.6102" fill="none" id="Dinamica-to-Proyectada" style="stroke:#181818;stroke-width:1;"/><polygon fill="#181818" points="233.69,137.16,226.2928,143.6625,231.599,141.7018,233.5597,147.008,233.69,137.16" style="stroke:#181818;stroke-width:1;"/><text fill="#000000" font-family="sans-serif" font-size="13" lengthAdjust="spacing" textLength="80.6152" x="218.5" y="180.0669">se estabiliza</text></g><!--link Proyectada to *end*--><g class="link" data-entity-1="ent0002" data-entity-2="ent0006" data-link-type="dependency" data-source-line="10" id="lnk7"><path d="M281.29,137.26 C291.32,145.51 301.12,155.58 307.5,167 C338.97,223.36 361.68,256.87 326.5,311 C308.7,338.38 273.3052,346.3609 253.4652,349.0609" fill="none" id="Proyectada-to-*end*" style="stroke:#181818;stroke-width:1;"/><polygon fill="#181818" points="247.52,349.87,256.9772,352.6199,252.4743,349.1958,255.8984,344.6929,247.52,349.87" style="stroke:#181818;stroke-width:1;"/><text fill="#000000" font-family="sans-serif" font-size="13" lengthAdjust="spacing" textLength="198.0215" x="345.5" y="243.5669">apagar fuente o retirar cuerpo</text></g><!--link Dinamica to *end*--><g class="link" data-entity-1="ent0003" data-entity-2="ent0006" data-link-type="dependency" data-source-line="11" id="lnk8"><path d="M117.52,264.15 C114.19,278.97 113.01,297.61 122.5,311 C146.52,344.88 195.5827,350.1004 219.2927,350.8104" fill="none" id="Dinamica-to-*end*" style="stroke:#181818;stroke-width:1;"/><polygon fill="#181818" points="225.29,350.99,216.4138,346.7224,220.2922,350.8403,216.1743,354.7188,225.29,350.99" style="stroke:#181818;stroke-width:1;"/><text fill="#000000" font-family="sans-serif" font-size="13" lengthAdjust="spacing" textLength="198.0215" x="123.5" y="307.0669">apagar fuente o retirar cuerpo</text></g><?plantuml-src ZL0xJWCn4ErzYgSqI4YvG0ege4Q4BgAOdPsWaRosDRQBv5ev0XTZDX2oeQAptholT_VlMAyVy6Bv8Dnef11geoPONQ4Lg2uOs62hiKiZY7E7AAXvCC6s5x6ziih5uocz6QNgqESfdMqUDT6aF9ky2bFa7YcD-UgOq5Icac52COH5xDnp8MUQ1YMCWf9_4iBl-NQJiwjybzMeHzzuXsUdpk-pq5qYM3bcDpD8rCdFbvD7zKhrRvUT_zq6LEY33FikoHVFjPkQ0zp5Ihvjz1_55m00?></g></svg>