<?plantuml 1.2026.2?><svg xmlns="http://www.w3.org/2000/svg" xmlns:xlink="http://www.w3.org/1999/xlink" contentStyleType="text/css" data-diagram-type="STATE" height="369px" preserveAspectRatio="none" style="width:387px;height:369px;background:#FFFFFF;" version="1.1" viewBox="0 0 387 369" width="387px" zoomAndPan="magnify"><defs/><g><g class="entity" data-qualified-name="ProyeccionPlana" id="ent0002"><rect fill="#F1F1F1" height="50" rx="12.5" ry="12.5" style="stroke:#181818;stroke-width:0.5;" width="139.1982" x="124.94" y="87"/><line style="stroke:#181818;stroke-width:0.5;" x1="124.94" x2="264.1382" y1="113.2969" y2="113.2969"/><text fill="#000000" font-family="sans-serif" font-size="14" lengthAdjust="spacing" textLength="119.1982" x="134.94" y="104.9951">Proyecci&#243;n Plana</text></g><g class="entity" data-qualified-name="ProyeccionDeformada" id="ent0003"><rect fill="#F1F1F1" height="50.2656" rx="12.5" ry="12.5" style="stroke:#181818;stroke-width:0.5;" width="179.1611" x="96.94" y="214"/><line style="stroke:#181818;stroke-width:0.5;" x1="96.94" x2="276.1011" y1="240.2969" y2="240.2969"/><text fill="#000000" font-family="sans-serif" font-size="14" lengthAdjust="spacing" textLength="159.1611" x="106.94" y="231.9951">Proyecci&#243;n Deformada</text><text fill="#000000" font-family="sans-serif" font-size="12" lengthAdjust="spacing" textLength="116.9941" x="101.94" y="256.4355">Adaptada al relieve</text></g><g class="start_entity" data-qualified-name=".start." data-source-line="1" id="ent0002"><ellipse cx="194.44" cy="16" fill="#222222" rx="10" ry="10" style="stroke:#222222;stroke-width:1;"/></g><g class="end_entity" data-qualified-name=".end." data-source-line="9" id="ent0006"><ellipse cx="266.44" cy="352" fill="none" rx="11" ry="11" style="stroke:#222222;stroke-width:1;"/><ellipse cx="266.44" cy="352" fill="#222222" rx="6" ry="6" style="stroke:#222222;stroke-width:1;"/></g><!--link *start* to ProyeccionPlana--><g class="link" data-entity-1="ent0002" data-entity-2="ent0002" data-link-type="dependency" data-source-line="1" id="lnk3"><path d="M194.44,26.01 C194.44,39.89 194.44,60.97 194.44,80.84" fill="none" id="*start*-to-ProyeccionPlana" style="stroke:#181818;stroke-width:1;"/><polygon fill="#181818" points="194.44,86.84,198.44,77.84,194.44,81.84,190.44,77.84,194.44,86.84" style="stroke:#181818;stroke-width:1;"/></g><!--link ProyeccionPlana to ProyeccionDeformada--><g class="link" data-entity-1="ent0002" data-entity-2="ent0003" data-link-type="dependency" data-source-line="6" id="lnk4"><path d="M124.73,117.28 C90.14,123.35 51.2,136.98 29.44,167 C6,199.33 43.8341,216.036 91.0241,225.786" fill="none" id="ProyeccionPlana-to-ProyeccionDeformada" style="stroke:#181818;stroke-width:1;"/><polygon fill="#181818" points="96.9,227,88.8955,221.2617,92.0034,225.9883,87.2768,229.0962,96.9,227" style="stroke:#181818;stroke-width:1;"/><text fill="#000000" font-family="sans-serif" font-size="13" lengthAdjust="spacing" textLength="120.6372" x="30.44" y="180.0669">cambiar superficie</text></g><!--link ProyeccionDeformada to ProyeccionPlana--><g class="link" data-entity-1="ent0003" data-entity-2="ent0002" data-link-type="dependency" data-source-line="7" id="lnk5"><path d="M187.98,213.97 C189.4,191.86 191.1087,165.2279 192.5187,143.0879" fill="none" id="ProyeccionDeformada-to-ProyeccionPlana" style="stroke:#181818;stroke-width:1;"/><polygon fill="#181818" points="192.9,137.1,188.3361,145.8276,192.5822,142.0899,196.3199,146.336,192.9,137.1" style="stroke:#181818;stroke-width:1;"/><text fill="#000000" font-family="sans-serif" font-size="13" lengthAdjust="spacing" textLength="127.7593" x="192.44" y="180.0669">restaurar superficie</text></g><!--link ProyeccionPlana to *end*--><g class="link" data-entity-1="ent0002" data-entity-2="ent0006" data-link-type="dependency" data-source-line="9" id="lnk7"><path d="M263.95,125.6 C287.16,133.48 310.61,146.27 324.44,167 C364.42,226.9 300.2149,311.389 277.3849,338.379" fill="none" id="ProyeccionPlana-to-*end*" style="stroke:#181818;stroke-width:1;"/><polygon fill="#181818" points="273.51,342.96,282.3763,338.6718,276.7391,339.1425,276.2684,333.5053,273.51,342.96" style="stroke:#181818;stroke-width:1;"/><text fill="#000000" font-family="sans-serif" font-size="13" lengthAdjust="spacing" textLength="40.7075" x="338.44" y="243.5669">retirar</text></g><!--link ProyeccionDeformada to *end*--><g class="link" data-entity-1="ent0003" data-entity-2="ent0006" data-link-type="dependency" data-source-line="10" id="lnk8"><path d="M203.8,264.09 C221.63,288.82 244.9015,321.1127 256.8315,337.6627" fill="none" id="ProyeccionDeformada-to-*end*" style="stroke:#181818;stroke-width:1;"/><polygon fill="#181818" points="260.34,342.53,258.322,332.8901,257.4162,338.474,251.8324,337.5681,260.34,342.53" style="stroke:#181818;stroke-width:1;"/><text fill="#000000" font-family="sans-serif" font-size="13" lengthAdjust="spacing" textLength="40.7075" x="237.44" y="307.0669">retirar</text></g><?plantuml-src YzQALT3LjLC8ACglJ4rEpipF2yX9p4lauYekIIn9LL22YH_UdAS0bb5II2p6K8r5iKjgMdvHRc8AkWQuk8ALWcDAOa49Y9cOer2KcfEPMfRAnOLcDfhhaBKd9-OcPIOMAHIN5gGMfMKcPwPoOLE8nNj0pKMfG4UN5g5gnsfvD328GEfBCe6gSTg0eWe0?></g></svg>