<?plantuml 1.2026.2?><svg xmlns="http://www.w3.org/2000/svg" xmlns:xlink="http://www.w3.org/1999/xlink" contentStyleType="text/css" data-diagram-type="STATE" height="369px" preserveAspectRatio="none" style="width:338px;height:369px;background:#FFFFFF;" version="1.1" viewBox="0 0 338 369" width="338px" zoomAndPan="magnify"><defs/><g><g class="entity" data-qualified-name="FormaEstable" id="ent0002"><rect fill="#F1F1F1" height="50" rx="12.5" ry="12.5" style="stroke:#181818;stroke-width:0.5;" width="198.7188" x="130.11" y="87"/><line style="stroke:#181818;stroke-width:0.5;" x1="130.11" x2="328.8288" y1="113.2969" y2="113.2969"/><text fill="#000000" font-family="sans-serif" font-size="14" lengthAdjust="spacing" textLength="178.7188" x="140.11" y="104.9951">Forma / Contorno Estable</text></g><g class="entity" data-qualified-name="ModificandoForma" id="ent0003"><rect fill="#F1F1F1" height="50" rx="12.5" ry="12.5" style="stroke:#181818;stroke-width:0.5;" width="173.7539" x="77.61" y="214"/><line style="stroke:#181818;stroke-width:0.5;" x1="77.61" x2="251.3639" y1="240.2969" y2="240.2969"/><text fill="#000000" font-family="sans-serif" font-size="14" lengthAdjust="spacing" textLength="153.7539" x="87.61" y="231.9951">Modificando Contorno</text></g><g class="start_entity" data-qualified-name=".start." data-source-line="1" id="ent0002"><ellipse cx="229.61" cy="16" fill="#222222" rx="10" ry="10" style="stroke:#222222;stroke-width:1;"/></g><g class="end_entity" data-qualified-name=".end." data-source-line="9" id="ent0006"><ellipse cx="242.61" cy="352" fill="none" rx="11" ry="11" style="stroke:#222222;stroke-width:1;"/><ellipse cx="242.61" cy="352" fill="#222222" rx="6" ry="6" style="stroke:#222222;stroke-width:1;"/></g><!--link *start* to FormaEstable--><g class="link" data-entity-1="ent0002" data-entity-2="ent0002" data-link-type="dependency" data-source-line="1" id="lnk3"><path d="M229.61,26.01 C229.61,39.89 229.61,60.97 229.61,80.84" fill="none" id="*start*-to-FormaEstable" style="stroke:#181818;stroke-width:1;"/><polygon fill="#181818" points="229.61,86.84,233.61,77.84,229.61,81.84,225.61,77.84,229.61,86.84" style="stroke:#181818;stroke-width:1;"/></g><!--link FormaEstable to ModificandoForma--><g class="link" data-entity-1="ent0002" data-entity-2="ent0003" data-link-type="dependency" data-source-line="6" id="lnk4"><path d="M129.9,127.84 C85.38,136.7 39.95,149.65 26.61,167 C6,193.81 32.9868,209.756 71.7468,220.726" fill="none" id="FormaEstable-to-ModificandoForma" style="stroke:#181818;stroke-width:1;"/><polygon fill="#181818" points="77.52,222.36,69.9495,216.0602,72.709,220.9984,67.7708,223.7579,77.52,222.36" style="stroke:#181818;stroke-width:1;"/><text fill="#000000" font-family="sans-serif" font-size="13" lengthAdjust="spacing" textLength="158.5518" x="27.61" y="180.0669">cambiar o rotar posicion</text></g><!--link ModificandoForma to FormaEstable--><g class="link" data-entity-1="ent0003" data-entity-2="ent0002" data-link-type="dependency" data-source-line="7" id="lnk5"><path d="M177.1,213.97 C188.6,191.86 202.8024,164.5636 214.3124,142.4236" fill="none" id="ModificandoForma-to-FormaEstable" style="stroke:#181818;stroke-width:1;"/><polygon fill="#181818" points="217.08,137.1,209.3796,143.2403,214.7737,141.5363,216.4777,146.9304,217.08,137.1" style="stroke:#181818;stroke-width:1;"/><text fill="#000000" font-family="sans-serif" font-size="13" lengthAdjust="spacing" textLength="67.0566" x="202.61" y="180.0669">estabilizar</text></g><!--link FormaEstable to *end*--><g class="link" data-entity-1="ent0002" data-entity-2="ent0006" data-link-type="dependency" data-source-line="9" id="lnk7"><path d="M258.49,137.17 C266.58,145.67 274.32,155.9 278.61,167 C301.78,227.03 282.94,249.63 263.61,311 C259.98,322.52 256.2953,329.5691 251.4053,337.4091" fill="none" id="FormaEstable-to-*end*" style="stroke:#181818;stroke-width:1;"/><polygon fill="#181818" points="248.23,342.5,256.3869,336.9805,250.8761,338.2576,249.599,332.7468,248.23,342.5" style="stroke:#181818;stroke-width:1;"/><text fill="#000000" font-family="sans-serif" font-size="13" lengthAdjust="spacing" textLength="40.7075" x="289.61" y="243.5669">retirar</text></g><!--link ModificandoForma to *end*--><g class="link" data-entity-1="ent0003" data-entity-2="ent0006" data-link-type="dependency" data-source-line="10" id="lnk8"><path d="M181.53,264.09 C198.92,288.82 221.5803,321.0709 233.2103,337.6209" fill="none" id="ModificandoForma-to-*end*" style="stroke:#181818;stroke-width:1;"/><polygon fill="#181818" points="236.66,342.53,234.7582,332.8665,233.7852,338.4391,228.2127,337.4661,236.66,342.53" style="stroke:#181818;stroke-width:1;"/><text fill="#000000" font-family="sans-serif" font-size="13" lengthAdjust="spacing" textLength="40.7075" x="214.61" y="307.0669">retirar</text></g><?plantuml-src RO-_2eD038VtUueVZe9qT-WYxTOda0xnl490BoMNgK_Vyv2YrYaX-RxywUidckQAk-XCjsGqJC6v72sWAaLSq4aqqIXOWGgKziOgF6Ja5tkAe_oa0cyQnNDkgvSBZWXQU9e79eL0nN9yIsBF4jqVUtmXos79UE8FwScsFl_TGeEnvlxfl1to1G00?></g></svg>